HIERARCHY
ROOT Hips
{
  OFFSET 12.736 97.2932 -188.164
  CHANNELS 6 Xposition Yposition Zposition Zrotation Xrotation Yrotation
  JOINT RightUpLeg
  {
    OFFSET -8.9458 -8.66707 0.101652
    CHANNELS 3 Zrotation Xrotation Yrotation
    JOINT RightLeg
    {
      OFFSET 0 -44.4227 1.3727
      CHANNELS 3 Zrotation Xrotation Yrotation
      JOINT RightFoot
      {
        OFFSET 0.253549 -42.0924 -1.46059
        CHANNELS 3 Zrotation Xrotation Yrotation
        JOINT RightToes
        {
          OFFSET 0.04 -4.41509 8.4991
          CHANNELS 3 Zrotation Xrotation Yrotation
          End Site
          {
            OFFSET -0.08 -0.137448 9.77979
          }
        }
      }
    }
  }
  JOINT Spine
  {
    OFFSET 0 11.8905 0
    CHANNELS 3 Zrotation Xrotation Yrotation
    JOINT Spine1
    {
      OFFSET 0 25.6574 0.127663
      CHANNELS 3 Zrotation Xrotation Yrotation
      JOINT HEad
      {
        OFFSET 0 8.73416 0.011341
        CHANNELS 3 Zrotation Xrotation Yrotation
        End Site
        {
          OFFSET -0.29 12.7742 2.51395
        }
      }
      JOINT LeftShoulder1
      {
        OFFSET 8.99 -0.362252 -0.22
        CHANNELS 3 Zrotation Xrotation Yrotation
        JOINT LeftArm
        {
          OFFSET 10.2827 -0.00338 0.322123
          CHANNELS 3 Zrotation Xrotation Yrotation
          JOINT LeftForeArm
          {
            OFFSET 32.7669 0.099144 -1.42434
            CHANNELS 3 Zrotation Xrotation Yrotation
            JOINT LeftHand
            {
              OFFSET 27.5643 0.085362 1.02216
              CHANNELS 3 Zrotation Xrotation Yrotation
              End Site
              {
                OFFSET 16.7443 -0.6 1.50291
              }
            }
          }
        }
      }
      JOINT RightShoulder
      {
        OFFSET -8.99 -0.362252 -0.22
        CHANNELS 3 Zrotation Xrotation Yrotation
        JOINT RightArm
        {
          OFFSET -10.2827 -0.00338 0.322123
          CHANNELS 3 Zrotation Xrotation Yrotation
          JOINT RightForeArm
          {
            OFFSET -32.8971 0.099144 -1.42434
            CHANNELS 3 Zrotation Xrotation Yrotation
            JOINT RightHand
            {
              OFFSET -27.4921 0.085362 1.02216
              CHANNELS 3 Zrotation Xrotation Yrotation
              End Site
              {
                OFFSET -16.6312 -0.6 1.50291
              }
            }
          }
        }
      }
    }
  }
  JOINT LeftUpLeg
  {
    OFFSET 8.9458 -8.66707 0.101652
    CHANNELS 3 Zrotation Xrotation Yrotation
    JOINT LeftLeg
    {
      OFFSET 0 -44.4227 1.3727
      CHANNELS 3 Zrotation Xrotation Yrotation
      JOINT LeftFoot
      {
        OFFSET -0.253549 -42.0924 -1.46059
        CHANNELS 3 Zrotation Xrotation Yrotation
        JOINT LeftToes
        {
          OFFSET -0.04 -4.41509 8.4991
          CHANNELS 3 Zrotation Xrotation Yrotation
          End Site
          {
            OFFSET 0.08 -0.047448 9.77979
          }
        }
      }
    }
  }
}
MOTION
Frames:	21
Frame Time:	0.0166667
53.3177 71.4331 -172.061 -1.85346 -1.53522 -38.9857 -39.7508 -43.0775 5.00802 106.177 65.8958 -106.667 12.7591 -30.3136 8.46327 0.0462048 0.000533403 0.662642 2.87765 6.29063 2.59411 4.53197 12.7151 5.09636 -2.87191 -2.80011 13.9685 -3.18055e-015 0 -0 -97.1805 -86.1083 -48.3422 -39.3522 66.2627 -60.5083 38.0027 11.3845 -21.1809 19.6941 4.81422 19.3504 82.0248 -31.5068 45.2042 -20.5086 52.4033 152.64 -5.17706 21.7496 -54.0657 47.8642 -42.8498 8.54802 -82.0985 73.9602 69.6894 -22.653 -27.3178 -6.82949 -1.36606e-009 1.55892e-007 -4.75425e-009 
51.6658 72.6457 -172.293 -1.86844 -1.81287 -39.9199 -37.7238 -41.3783 5.27414 96.6853 68.5277 -97.4011 12.6888 -28.9196 8.0517 0.0462048 0.000533403 0.662642 2.9549 6.46928 2.60679 4.85393 13.0737 5.07345 -2.86082 -2.14191 14.6348 -3.97569e-015 -1.59028e-015 3.18055e-015 -20.1963 -84.9764 31.2583 -42.5725 63.8488 -57.8187 35.9883 10.8466 -24.3041 20.1301 4.78226 18.8408 80.0717 -30.8211 42.4306 -18.9256 51.9932 151.63 -5.22844 21.7429 -53.4101 46.6676 -39.895 5.70568 -72.8646 72.0167 61.0358 -22.6846 -27.2064 -6.51127 -1.36606e-009 1.55892e-007 -4.75426e-009 
49.7883 73.9672 -172.674 -1.93384 -1.95389 -40.7601 -35.5853 -39.5748 4.60029 86.0425 70.5449 -86.7923 11.6891 -27.0475 7.23617 0.0462048 0.000533403 0.662642 2.97694 6.6265 2.61331 5.16818 13.387 5.02731 -2.69417 -1.51098 15.1553 7.95139e-016 -3.18055e-015 3.18055e-015 -1.40901 -80.0763 53.0559 -43.7527 61.8791 -57.7142 34.1367 10.4553 -27.1434 20.4433 4.73212 18.3679 78.4865 -30.2819 40.1755 -17.6853 51.7105 150.786 -5.22966 21.7215 -52.9119 45.5387 -36.9403 2.78503 -64.264 69.7034 53.4967 -22.6932 -27.0841 -6.30871 -1.36606e-009 1.55892e-007 -4.75425e-009 
47.7127 75.3767 -173.215 -2.06218 -1.99572 -41.3991 -33.4952 -37.6033 3.2049 74.8172 71.6334 -75.4584 9.91093 -24.7206 6.14021 0.0462048 0.000533403 0.662642 2.97033 6.77998 2.61578 5.45697 13.692 4.96417 -2.40792 -0.98335 15.4528 -2.38542e-015 -7.95139e-016 -0 1.90437 -75.2243 59.5154 -43.1569 60.5655 -59.6739 32.7139 10.204 -29.3592 20.6387 4.67336 17.9611 77.3652 -29.928 38.5558 -16.9009 51.5048 150.218 -5.15235 21.6776 -52.6466 44.4926 -34.1178 0.0500159 -56.0855 67.2432 46.7691 -22.5523 -26.6469 -6.09065 -1.36606e-009 1.55892e-007 -4.75426e-009 
45.4808 76.8448 -173.912 -2.24332 -1.99264 -41.7438 -31.5684 -35.4137 1.41124 64.2632 71.6277 -64.7512 7.64566 -22.0352 4.94399 0.0462048 0.000533403 0.662642 2.90441 6.9449 2.61704 5.69393 14.0191 4.88983 -2.06064 -0.615944 15.4912 -2.38542e-015 2.38542e-015 -3.18055e-015 1.33403 -71.042 61.9163 -41.1427 59.8633 -63.1009 31.85 10.0538 -30.7813 20.7397 4.61655 17.6404 76.7258 -29.7939 37.6077 -16.5873 51.3568 149.976 -5.02127 21.6215 -52.6135 43.4763 -31.5517 -2.32247 -48.0784 64.7936 40.4425 -22.1396 -25.6966 -5.75145 -1.36606e-009 1.55892e-007 -4.75426e-009 
43.1575 78.3428 -174.735 -2.45953 -1.98034 -41.7201 -29.834 -32.9896 -0.420743 55.6395 70.5732 -56.0487 5.21689 -19.1619 3.81317 0.0462048 0.000533403 0.662642 2.7877 7.12585 2.61863 5.86525 14.3775 4.80368 -1.71303 -0.436803 15.2824 -3.18055e-015 -6.36111e-015 3.18055e-015 -0.872375 -67.721 62.224 -38.176 59.5695 -67.3689 31.4962 9.98599 -31.4045 20.7765 4.56964 17.4124 76.5195 -29.8993 37.2966 -16.6636 51.2808 150.036 -4.90541 21.5783 -52.7397 42.4112 -29.355 -4.23948 -40.1341 62.4277 34.209 -21.3691 -24.1835 -5.24038 -1.36606e-009 1.55892e-007 -4.75425e-009 
40.8268 79.861 -175.631 -2.6786 -1.97089 -41.2831 -28.244 -30.3635 -1.98847 49.3196 68.6613 -49.8363 2.89068 -16.3004 2.851 0.0462048 0.000533403 0.662642 2.68095 7.31585 2.60299 5.96695 14.7518 4.69872 -1.41333 -0.444746 14.8799 -2.38542e-015 0 3.18055e-015 -4.03662 -65.2844 60.9286 -34.8151 59.4591 -71.8574 31.4712 10.0062 -31.366 20.7757 4.53643 17.2716 76.6537 -30.2355 37.5342 -16.9851 51.3078 150.303 -4.89377 21.5802 -52.9066 41.2158 -27.6083 -5.66105 -32.3297 60.1317 27.9481 -20.2252 -22.1944 -4.57187 -1.36606e-009 1.55892e-007 -4.75425e-009 
38.5495 81.4444 -176.551 -2.83905 -1.97164 -40.4323 -26.6951 -27.5994 -3.10622 44.7422 66.0834 -45.655 0.824581 -13.6282 2.09206 0.0462048 0.000533403 0.662642 2.56081 7.50125 2.56695 5.98585 15.1123 4.56815 -1.19358 -0.620011 14.3616 -7.95139e-016 1.59028e-015 -0 -7.87368 -63.6475 58.2501 -31.603 59.3868 -76.035 31.5664 10.1144 -30.8985 20.7543 4.51701 17.2048 77.0223 -30.7633 38.1956 -17.3933 51.4619 150.659 -5.05736 21.6527 -52.9963 39.8221 -26.2952 -6.57113 -24.8815 57.743 21.7196 -18.7697 -19.8666 -3.80182 -1.36606e-009 1.55892e-007 -4.75425e-009 
36.3877 83.132 -177.441 -2.89569 -1.9661 -39.2149 -25.0568 -24.8084 -3.71794 41.0709 63.0416 -42.7303 -0.854643 -11.2992 1.52453 0.0462048 0.000533403 0.662642 2.47088 7.66655 2.50027 5.91311 15.4292 4.41318 -1.07484 -0.938346 13.8076 -7.95139e-016 3.18055e-015 -9.54166e-015 -12.1983 -62.6661 54.422 -28.9259 59.3109 -79.5657 31.6395 10.2831 -30.2562 20.7157 4.50879 17.1987 77.5334 -31.423 39.1391 -17.7627 51.7472 150.995 -5.42171 21.803 -52.9297 38.2162 -25.3904 -6.93527 -18.1747 55.1892 15.8004 -17.1457 -17.4357 -3.01794 -1.36606e-009 1.55892e-007 -4.75425e-009 
34.3795 84.9551 -178.263 -2.8116 -1.94154 -37.7274 -23.2212 -22.1208 -3.86747 37.5817 59.745 -40.3604 -2.02796 -9.43131 1.10844 0.0462048 0.000533403 0.662642 2.41757 7.80303 2.40605 5.72947 15.6883 4.2507 -1.07602 -1.38032 13.2783 -3.97569e-015 3.18055e-015 -3.18055e-015 -16.8489 -62.1767 49.7369 -26.935 59.2538 -82.3606 31.6489 10.4628 -29.6469 20.6509 4.50691 17.2432 78.1254 -32.1527 40.227 -18.0285 52.1459 151.252 -5.95666 22.0151 -52.6874 36.4041 -24.8421 -6.72057 -12.5464 52.4961 10.4835 -15.5278 -15.1644 -2.30241 -1.36607e-009 1.55892e-007 -4.75426e-009 
32.54 86.9204 -179.002 -2.56418 -1.89327 -36.1018 -21.1415 -19.6595 -3.66504 33.8064 56.4022 -38.0511 -2.56628 -8.07809 0.793818 0.0462048 0.000533403 0.662642 2.36903 7.91292 2.30235 5.41231 15.8952 4.1137 -1.21868 -1.93049 12.7978 2.38542e-015 -1.59028e-015 3.18055e-015 -21.6915 -62.0208 44.5001 -25.5685 59.2458 -84.5384 31.6295 10.6034 -29.1972 20.5419 4.50739 17.332 78.7699 -32.9015 41.3444 -18.1889 52.6288 151.432 -6.58905 22.257 -52.3047 34.3973 -24.5812 -5.92909 -8.17933 49.775 5.97755 -14.0748 -13.2919 -1.71185 -1.36607e-009 1.55892e-007 -4.75426e-009 
30.8694 89.0019 -179.659 -2.14918 -1.8181 -34.4785 -18.8567 -17.5099 -3.26038 29.5376 53.1796 -35.5068 -2.34352 -7.20523 0.538106 0.0462048 0.000533403 0.662642 2.28134 8.00601 2.21583 4.94988 16.0666 4.04392 -1.52305 -2.56895 12.3484 -7.95139e-016 -3.18055e-015 -3.18055e-015 -26.6372 -62.048 38.9703 -24.644 59.2915 -86.3258 31.6415 10.6722 -28.9538 20.3699 4.50712 17.4611 79.4554 -33.6378 42.4089 -18.2831 53.1628 151.578 -7.22961 22.4927 -51.848 32.213 -24.5293 -4.62753 -5.08692 47.1605 2.39201 -12.9032 -11.993 -1.27323 -1.36606e-009 1.55892e-007 -4.75425e-009 
29.3584 91.124 -180.258 -1.56448 -1.71435 -32.9798 -16.5154 -15.7418 -2.81288 24.8499 50.2155 -32.6404 -1.27612 -6.72634 0.315634 0.0462048 0.000533403 0.662642 2.07098 8.09292 2.18303 4.34853 16.2161 4.08129 -1.99644 -3.26217 11.8765 8.82781e-032 -1.59028e-015 3.18055e-015 -31.6406 -62.1125 33.3261 -23.9665 59.3617 -87.9436 31.7222 10.659 -28.9118 20.1259 4.50303 17.6261 80.1641 -34.3469 43.3684 -18.3576 53.713 151.74 -7.80316 22.6951 -51.3833 29.8681 -24.6335 -2.94422 -3.13966 44.7864 -0.25131 -12.0979 -11.3892 -0.994207 -1.36606e-009 1.55892e-007 -4.75425e-009 
28.0069 93.2339 -180.811 -0.86021 -1.54406 -31.685 -14.2853 -14.3212 -2.45651 19.9826 47.4298 -29.4563 0.588295 -6.43088 0.124158 0.0462048 0.000533403 0.662642 1.77626 8.17103 2.21949 3.64793 16.3402 4.25504 -2.62185 -3.96083 11.3103 -0 0 3.18055e-015 -36.67 -62.0759 27.6771 -23.408 59.4073 -89.5189 31.8615 10.5755 -29.0424 19.8176 4.49192 17.8214 80.8527 -35.0259 44.1903 -18.4356 54.2404 151.949 -8.26683 22.8512 -50.9537 27.4108 -24.8227 -1.03607 -2.08899 42.645 -2.03335 -11.6957 -11.5213 -0.866806 -1.36607e-009 1.55892e-007 -4.75426e-009 
26.8105 95.2661 -181.346 -0.111857 -1.25344 -30.6324 -12.3279 -13.2182 -2.29414 15.346 44.711 -26.0795 3.04365 -6.07701 -0.0358426 0.0462048 0.000533403 0.662642 1.45638 8.22718 2.33414 2.9114 16.4186 4.58025 -3.35462 -4.60697 10.582 3.53113e-031 3.18055e-015 -6.36111e-015 -41.6723 -61.8227 22.1025 -22.9353 59.3815 -91.0657 32.0049 10.448 -29.3123 19.4683 4.47797 18.0422 81.4504 -35.6792 44.8515 -18.501 54.7015 152.196 -8.61529 22.9614 -50.5712 24.9095 -25.0588 0.959429 -1.6048 40.6681 -3.17388 -11.7419 -12.4004 -0.886561 -1.36606e-009 1.55892e-007 -4.75426e-009 
25.7556 97.1435 -181.895 0.601605 -0.795894 -29.8331 -10.7544 -12.4585 -2.3993 11.3475 42.0489 -22.621 5.74162 -5.4307 -0.175747 0.0462048 0.000533403 0.662642 1.14857 8.24377 2.53451 2.20411 16.425 5.05905 -4.12993 -5.14737 9.65098 -1.59028e-015 -3.18055e-015 -0 -46.5518 -61.2809 16.6892 -22.5803 59.2594 -92.5235 32.0791 10.3101 -29.6873 19.1136 4.46695 18.2869 81.8793 -36.3188 45.3362 -18.5059 55.0587 152.434 -8.87145 23.0358 -50.2236 22.4303 -25.3448 2.94399 -1.33181 38.7864 -4.01253 -12.3102 -14.0171 -1.06366 -1.36606e-009 1.55892e-007 -4.75425e-009 
24.8203 98.7845 -182.489 1.20101 -0.145257 -29.2826 -9.57433 -12.1254 -2.82433 8.20991 39.5938 -19.0512 8.27402 -4.30385 -0.318705 0.0462048 0.000533403 0.662642 0.880086 8.20609 2.82146 1.58353 16.3398 5.68191 -4.87815 -5.54727 8.51932 3.53113e-031 -3.18055e-015 6.36111e-015 -51.1767 -60.4399 11.5464 -22.3785 59.045 -93.8254 32.0277 10.1932 -30.1275 18.7932 4.46696 18.5599 82.0842 -36.9703 45.6423 -18.3973 55.2997 152.609 -9.07181 23.0878 -49.8885 20.0402 -25.7143 4.84784 -0.960472 36.9728 -4.92809 -13.4887 -16.319 -1.42914 -1.36606e-009 1.55892e-007 -4.75425e-009 
23.9767 100.102 -183.154 1.61967 0.690166 -28.9689 -8.70053 -12.3399 -3.59393 5.90912 37.6666 -15.2143 10.3119 -2.62588 -0.479325 0.0462048 0.000533403 0.662642 0.667619 8.10809 3.18697 1.08882 16.1591 6.42738 -5.54093 -5.79714 7.23393 -1.59028e-015 0 -0 -55.4135 -59.3569 6.78452 -22.3118 58.7674 -94.968 31.8402 10.118 -30.5808 18.5442 4.48718 18.871 82.0604 -37.6771 45.7936 -18.1475 55.453 152.683 -9.25179 23.1302 -49.5472 17.8005 -26.223 6.59835 -0.284745 35.2803 -6.23435 -15.3346 -19.1948 -2.03376 -1.36606e-009 1.55892e-007 -4.75424e-009 
23.1818 101.114 -183.848 1.81001 1.67398 -28.8623 -7.92227 -12.9833 -4.65097 4.1022 36.2574 -10.9132 11.7477 -0.307511 -0.708193 0.0462048 0.000533403 0.662642 0.526039 7.96555 3.60311 0.735515 15.9009 7.25944 -6.08196 -5.91272 5.87603 -7.95139e-016 0 -0 -59.167 -58.1495 2.47805 -22.2873 58.4689 -96.0285 31.5654 10.0896 -30.9821 18.3947 4.53623 19.2337 81.8619 -38.4933 45.8451 -17.7757 55.5849 152.661 -9.43624 23.1723 -49.1936 15.7151 -26.7249 8.10776 0.773828 33.4753 -8.13645 -17.7704 -22.3358 -2.89089 -1.36607e-009 1.55892e-007 -4.75426e-009 
22.3926 101.897 -184.499 1.7684 2.72591 -28.9363 -7.09079 -13.7552 -5.83942 2.50947 35.1275 -6.24253 12.6877 2.62696 -1.0403 0.0462048 0.000533403 0.662642 0.43667 7.78603 4.04968 0.515901 15.59 8.12757 -6.4893 -5.92904 4.53972 0 3.18055e-015 -0 -62.4107 -56.9723 -1.37149 -22.1658 58.1935 -97.1297 31.2961 10.0962 -31.2661 18.3581 4.61986 19.6586 81.5892 -39.4606 45.8786 -17.346 55.7709 152.585 -9.63343 23.2182 -48.8414 13.7176 -26.9454 9.22607 2.12921 31.1724 -10.6246 -20.5397 -25.3084 -3.9336 -1.36606e-009 1.55892e-007 -4.75425e-009 
21.5902 102.396 -185.079 1.47288 3.77375 -29.1513 -6.17655 -14.5891 -6.96136 1.12503 34.5673 -1.68673 13.3146 5.69756 -1.41406 0.0462048 0.000533403 0.662642 0.475332 7.57835 4.49791 0.415393 15.2565 8.97145 -6.77131 -5.8945 3.3072 4.77083e-015 0 -4.77083e-015 -65.2015 -55.9877 -4.85764 -21.8278 57.9842 -98.3723 31.1374 10.1158 -31.3828 18.426 4.73763 20.1455 81.3681 -40.5764 45.9903 -16.9591 56.0517 152.527 -9.82961 23.266 -48.5311 11.8519 -26.9594 9.7939 3.6301 28.6479 -13.5894 -23.1953 -27.925 -5.04094 -1.36606e-009 1.55892e-007 -4.75425e-009 
